{
  "accessors": [
    {
      "bufferView": 2,
      "componentType": 5126,
      "count": 30963,
      "max": [
        9.340280532836914,
        2.8930211067199707,
        1.8801155090332031
      ],
      "min": [
        -9.340280532836914,
        -4.258708953857422,
        -1.7493298053741455
      ],
      "type": "VEC3"
    },
    {
      "bufferView": 2,
      "byteOffset": 371556,
      "componentType": 5126,
      "count": 30963,
      "max": [
        1.0,
        1.0,
        1.0
      ],
      "min": [
        -1.0,
        -1.0,
        -1.0
      ],
      "type": "VEC3"
    },
    {
      "bufferView": 3,
      "componentType": 5126,
      "count": 30963,
      "max": [
        1.0,
        1.0,
        1.0,
        1.0
      ],
      "min": [
        -1.0,
        -1.0,
        -1.0,
        -1.0
      ],
      "type": "VEC4"
    },
    {
      "bufferView": 1,
      "componentType": 5126,
      "count": 30963,
      "max": [
        0.9974721670150757,
        0.9974925518035889
      ],
      "min": [
        0.0025062032509595156,
        0.0025054458528757095
      ],
      "type": "VEC2"
    },
    {
      "bufferView": 1,
      "byteOffset": 247704,
      "componentType": 5126,
      "count": 30963,
      "max": [
        0.9974721670150757,
        0.9974925518035889
      ],
      "min": [
        0.0025062032509595156,
        0.0025054458528757095
      ],
      "type": "VEC2"
    },
    {
      "bufferView": 0,
      "componentType": 5125,
      "count": 64596,
      "type": "SCALAR"
    }
  ],
  "asset": {
    "extras": {
      "author": "tashtego (https://sketchfab.com/tashtego)",
      "license": "CC-BY-NC-4.0 (http://creativecommons.org/licenses/by-nc/4.0/)",
      "source": "https://sketchfab.com/3d-models/meteor-m2-no2-7463bc7831ff4166b9aa781427237e8b",
      "title": "Meteor-M2 No.2"
    },
    "generator": "Sketchfab-12.71.0",
    "version": "2.0"
  },
  "bufferViews": [
    {
      "buffer": 0,
      "byteLength": 258384,
      "name": "floatBufferViews",
      "target": 34963
    },
    {
      "buffer": 0,
      "byteLength": 495408,
      "byteOffset": 258384,
      "byteStride": 8,
      "name": "floatBufferViews",
      "target": 34962
    },
    {
      "buffer": 0,
      "byteLength": 743112,
      "byteOffset": 753792,
      "byteStride": 12,
      "name": "floatBufferViews",
      "target": 34962
    },
    {
      "buffer": 0,
      "byteLength": 495408,
      "byteOffset": 1496904,
      "byteStride": 16,
      "name": "floatBufferViews",
      "target": 34962
    }
  ],
  "buffers": [
    {
      "byteLength": 1992312,
      "uri": "scene.bin"
    }
  ],
  "images": [
    {
      "uri": "textures/Meteor-m2_baseColor.png"
    },
    {
      "uri": "textures/Meteor-m2_metallicRoughness.png"
    },
    {
      "uri": "textures/Meteor-m2_normal.png"
    }
  ],
  "materials": [
    {
      "doubleSided": true,
      "name": "Meteor-m2",
      "normalTexture": {
        "index": 2
      },
      "occlusionTexture": {
        "index": 1
      },
      "pbrMetallicRoughness": {
        "baseColorTexture": {
          "index": 0
        },
        "metallicRoughnessTexture": {
          "index": 1
        }
      }
    }
  ],
  "meshes": [
    {
      "name": "Meteor-M2_Meteor-m2_0",
      "primitives": [
        {
          "attributes": {
            "NORMAL": 1,
            "POSITION": 0,
            "TANGENT": 2,
            "TEXCOORD_0": 3,
            "TEXCOORD_1": 4
          },
          "indices": 5,
          "material": 0,
          "mode": 4
        }
      ]
    }
  ],
  "nodes": [
    {
      "children": [
        1
      ],
      "matrix": [
        1.0,
        0.0,
        0.0,
        0.0,
        0.0,
        2.220446049250313e-16,
        -1.0,
        0.0,
        0.0,
        1.0,
        2.220446049250313e-16,
        0.0,
        0.0,
        0.0,
        0.0,
        1.0
      ],
      "name": "Sketchfab_model"
    },
    {
      "children": [
        2
      ],
      "matrix": [
        1.0,
        0.0,
        0.0,
        0.0,
        0.0,
        0.0,
        1.0,
        0.0,
        0.0,
        -1.0,
        0.0,
        0.0,
        0.0,
        0.0,
        0.0,
        1.0
      ],
      "name": "360cefdb014949479c2ac01f08cd8d7f.fbx"
    },
    {
      "children": [
        3
      ],
      "name": "RootNode"
    },
    {
      "children": [
        4
      ],
      "name": "Meteor-M2"
    },
    {
      "mesh": 0,
      "name": "Meteor-M2_Meteor-m2_0"
    }
  ],
  "samplers": [
    {
      "magFilter": 9729,
      "minFilter": 9987,
      "wrapS": 10497,
      "wrapT": 10497
    }
  ],
  "scene": 0,
  "scenes": [
    {
      "name": "Sketchfab_Scene",
      "nodes": [
        0
      ]
    }
  ],
  "textures": [
    {
      "sampler": 0,
      "source": 0
    },
    {
      "sampler": 0,
      "source": 1
    },
    {
      "sampler": 0,
      "source": 2
    }
  ]
}
